<svg version="1.2" xmlns="http://www.w3.org/2000/svg" viewBox="0 0 703 608" width="703" height="608">
	<title>print-circulo-cromatico</title>
	<style>
		.s0 { fill: #ffa001 } 
		.s1 { fill: #01b501 } 
		.s2 { fill: #00c2b0 } 
		.s3 { fill: #f32690 } 
		.s4 { fill: #ff6300 } 
		.s5 { fill: #ff2100 } 
		.s6 { fill: #3bd201 } 
		.s7 { fill: #fec801 } 
		.s8 { fill: #0070c8 } 
		.s9 { fill: #3046bf } 
		.s10 { fill: #ffef01 } 
		.s11 { fill: #871bb5 } 
		.s12 { fill: #0c0c0b } 
	</style>
	<g id="Background">
		<path id="Path 2" class="s0" d="m141 272l7-24 13-28 18-28 20-22 159 160-1 1z"/>
		<path id="Path 3" class="s1" d="m357 336l4-3 60 217-46 8h-29l-43-7z"/>
		<path id="Path 4" class="s2" d="m361 333v-1l161 158-18 18-31 21-52 21z"/>
		<path id="Path 5" class="s3" d="m363 325l55-215 24 7 30 14 30 20 18 17z"/>
		<path id="Path 6" class="s4" d="m199 170l18-17 29-20 29-14 26-8 60 216-3 3z"/>
		<path id="Path 7" class="s5" d="m301 111l48-8h23l46 7-55 215-2 2z"/>
		<path id="Path 8" class="s6" d="m200 493l157-157-54 215-23-7-32-15z"/>
		<path id="Path 9" class="s7" d="m141 391l-8-46 1-40 7-33 216 59-3 3h-9z"/>
		<path id="Path 10" class="s8" d="m361 332l2-2 217 58-6 22-13 29-20 31-19 20z"/>
		<path id="Path 11" class="s9" d="m365 328l214-58 6 22 3 33-2 37-6 26-217-58z"/>
		<path id="Path 12" class="s10" d="m141 391l204-57h9l-156 156-18-20-18-27z"/>
		<path id="Path 13" class="s11" d="m365 328l157-157 15 15 23 35 14 30 5 19z"/>
		<path id="Path 14" class="s12" d="m274 72zm246 96l32-33h4l-34 36-157 157-2 2-2 2v1l-4 3-157 157-40 41h-3v-3l41-41 156-156 3-3 1-1 3-3 2-2zm66 310zm-4 14z"/>
	</g>
</svg>